<!-- Generated by IcoMoon.io -->
<svg version="1.1" xmlns="http://www.w3.org/2000/svg" width="36" height="32" viewBox="0 0 36 32">
<path d="M20.313 6.391l-18.969 18.969q-0.234 0.234-0.563 0.234t-0.555-0.227-0.227-0.555 0.234-0.563l20.313-20.313q0.219-0.219 0.547-0.219t0.555 0.227 0.227 0.555v10.609q11.391-11.391 11.719-11.391t0.555 0.227 0.227 0.555v20.313q0 0.328-0.227 0.555t-0.555 0.227-0.555-0.227-0.227-0.555v-18.422l-11.156 11.156q-0.234 0.234-0.563 0.234t-0.555-0.227-0.227-0.555v-10.609zM17.188 14.203l-11.156 11.156q-0.234 0.234-0.563 0.234t-0.555-0.227-0.227-0.555 0.234-0.563l12.5-12.5q0.219-0.219 0.547-0.219t0.563 0.219q0.219 0.234 0.219 0.563v10.609l11.172-11.172q0.219-0.219 0.547-0.219t0.563 0.219q0.219 0.234 0.219 0.563v12.5q0 0.328-0.227 0.555t-0.555 0.227-0.555-0.227-0.227-0.555v-10.609l-11.156 11.156q-0.234 0.234-0.563 0.234t-0.555-0.227-0.227-0.555v-10.609z"></path>
</svg>
